<?xml version="1.0" encoding="UTF-8" standalone="no"?>
<svg
   xmlns:dc="http://purl.org/dc/elements/1.1/"
   xmlns:cc="http://creativecommons.org/ns#"
   xmlns:rdf="http://www.w3.org/1999/02/22-rdf-syntax-ns#"
   xmlns:svg="http://www.w3.org/2000/svg"
   xmlns="http://www.w3.org/2000/svg"
   viewBox="0 0 170.66667 170.66667"
   height="170.66667"
   width="170.66667"
   xml:space="preserve"
   id="svg2"
   version="1.1"><metadata
     id="metadata8"><rdf:RDF><cc:Work
         rdf:about=""><dc:format>image/svg+xml</dc:format><dc:type
           rdf:resource="http://purl.org/dc/dcmitype/StillImage" /></cc:Work></rdf:RDF></metadata><defs
     id="defs6" /><g
     transform="matrix(1.3333333,0,0,-1.3333333,0,170.66667)"
     id="g10"><g
       transform="scale(0.1)"
       id="g12"><path
         id="path14"
         style="fill:#100f0d;fill-opacity:1;fill-rule:nonzero;stroke:none"
         d="m 597.453,499.336 c 3.887,-7.781 9.934,-15.613 15.988,-24.496 5.868,-9.031 14.075,-17.5 21.75,-27.211 4.153,-4.598 8.696,-9.086 13.192,-13.809 4.523,-4.703 9.078,-9.582 14.262,-13.98 5.05,-4.547 10.187,-9.168 15.386,-13.844 5.317,-4.547 11.028,-8.758 16.61,-13.223 10.976,-9.207 23.468,-16.726 35.347,-25.14 12.637,-7.172 24.766,-15.387 37.817,-21.375 6.441,-3.141 12.722,-6.539 19.144,-9.399 6.508,-2.675 12.938,-5.316 19.262,-7.914 6.254,-2.82 12.715,-4.703 18.988,-6.707 6.297,-1.922 12.379,-4.133 18.449,-5.695 6.129,-1.359 12.09,-2.684 17.86,-3.961 2.887,-0.641 5.726,-1.27 8.512,-1.891 2.832,-0.328 5.609,-0.648 8.332,-0.964 10.894,-1.25 20.89,-2.758 29.808,-2.243 8.899,0.192 16.746,-0.457 23.082,0.903 11.887,1.66 18.934,2.644 19.832,2.769 99.906,139.453 189.526,328.559 253.786,573.844 -0.03,-0.008 -3.64,-1.012 -9.96,-2.77 -3.18,-0.843 -6.98,-2.089 -11.52,-2.886 -4.51,-0.852 -9.58,-2.106 -15.19,-2.938 -5.63,-0.652 -11.7,-1.769 -18.2,-2.195 -6.49,-0.34 -13.36,-1.102 -20.48,-0.867 -7.14,-0.149 -14.5,0.218 -21.98,0.875 -7.49,0.484 -15.04,1.785 -22.59,2.988 -7.5,1.539 -15.02,3.078 -22.25,5.379 -7.34,1.879 -14.24,4.84 -21.02,7.398 -6.59,3.043 -13.05,5.871 -18.77,9.411 -5.96,3.105 -11.01,7.066 -15.89,10.398 -4.57,3.746 -8.799,7.23 -12.237,10.66 -3.273,3.609 -6.363,6.574 -8.488,9.399 -0.918,1.261 -1.707,2.359 -2.445,3.375 -7.074,-7.649 -14.199,-15.352 -21.391,-23.129 -30.558,-32.895 -62.137,-66.891 -94.226,-101.434 -22.426,-22.672 -45.118,-45.613 -67.864,-68.605 1.34,-2.137 3.125,-4.993 5.43,-8.672 2.867,-3.867 6.356,-8.563 10.352,-13.949 4.5,-5.016 9.004,-11.192 14.972,-17.028 2.907,-2.992 5.93,-6.113 9.059,-9.34 3.34,-3.027 6.793,-6.16 10.34,-9.379 7.058,-6.48 15.152,-12.621 23.511,-18.945 8.555,-6.078 17.485,-12.266 27.098,-17.734 4.672,-2.965 9.539,-5.672 14.578,-8.11 5.008,-2.492 9.926,-5.257 15.055,-7.554 10.363,-4.36 20.613,-9.11 31.246,-12.352 10.418,-3.918 21.066,-6.43 31.34,-9.051 10.27,-2.629 20.5,-3.769 30.07,-5.617 9.7,-0.875 18.88,-1.703 27.35,-2.469 8.51,-0.031 16.31,-0.054 23.23,-0.082 6.94,-0.226 12.96,0.856 17.93,1.09 9.94,0.824 15.62,1.297 15.62,1.297 0,0 -5.66,-0.711 -15.55,-1.961 -4.96,-0.445 -10.91,-1.777 -17.88,-1.851 -6.97,-0.274 -14.83,-0.582 -23.41,-0.918 -8.58,0.41 -17.87,0.851 -27.7,1.32 -9.72,1.441 -20.15,2.168 -30.676,4.387 -10.531,2.211 -21.488,4.312 -32.258,7.843 -10.988,2.852 -21.636,7.231 -32.441,11.254 -5.352,2.129 -10.496,4.731 -15.742,7.071 -5.281,2.285 -10.391,4.855 -15.317,7.687 -10.117,5.199 -19.574,11.16 -28.671,17.063 -8.899,6.148 -17.54,12.152 -25.153,18.554 -3.828,3.188 -7.551,6.285 -11.152,9.285 -3.41,3.227 -6.707,6.34 -9.867,9.332 -6.489,5.836 -11.532,12.114 -16.485,17.208 -4.488,5.539 -8.406,10.371 -11.629,14.351 -1.632,2.371 -3.011,4.383 -4.234,6.16 -7.238,-7.312 -14.457,-14.613 -21.703,-21.937 -33.211,-34.578 -68.742,-66.758 -102.824,-99.383 -17.133,-16.223 -34.129,-32.313 -50.918,-48.211 -10.535,-9.988 -20.992,-19.832 -31.489,-29.5 1.196,-2.828 2.723,-6.441 4.559,-10.781 2.027,-5.856 6.406,-12.145 10.453,-19.801" /><path
         id="path16"
         style="fill:#100f0d;fill-opacity:1;fill-rule:nonzero;stroke:none"
         d="m 1236.02,1227.02 c -26.78,-32.16 -65.19,-77.98 -111.71,-132.63 -11.6,-13.69 -23.69,-27.94 -36.2,-42.7 -12.78,-14.53 -25.98,-29.55 -39.56,-45 -13.59,-15.44 -27.55,-31.303 -41.81,-47.514 -4.11,-4.668 -8.299,-9.426 -12.455,-14.149 0.856,-1.355 2.164,-3.433 3.965,-6.285 1.645,-2.535 4.2,-5.262 6.82,-8.621 2.82,-3.203 6.4,-6.539 10.27,-10.187 4.24,-3.274 8.56,-7.207 13.9,-10.422 5.05,-3.617 10.91,-6.629 16.91,-9.899 6.23,-2.801 12.57,-6.058 19.46,-8.289 6.75,-2.648 13.86,-4.578 21,-6.535 7.19,-1.625 14.43,-3.367 21.67,-4.301 7.23,-1.105 14.38,-1.933 21.37,-2.234 6.97,-0.688 13.73,-0.367 20.15,-0.449 6.42,0.007 12.47,0.722 18.08,1.007 5.59,0.465 10.66,1.379 15.2,1.934 4.55,0.492 8.43,1.496 11.66,2.133 6.42,1.348 10.09,2.117 10.12,2.121 30.83,117.7 55.84,248.3 73.34,392.48 0,0 -15.34,-18.35 -42.18,-50.46" /><path
         id="path18"
         style="fill:#100f0d;fill-opacity:1;fill-rule:nonzero;stroke:none"
         d="m 935.512,1140.33 c 0.496,4 0.98,7.92 1.453,11.72 0.765,7.64 2.226,14.76 3.441,21.34 1.039,6.6 2.778,12.53 4.071,17.8 1.222,5.3 2.566,9.82 3.906,13.48 2.344,7.03 3.691,11.07 3.816,11.45 -96.027,-23.18 -183.922,-49.43 -263.828,-78.21 -0.039,-0.24 -1.012,-6.7 -2.699,-17.91 -0.863,-5.71 -2.09,-12.63 -2.395,-20.67 -0.363,-8.03 -1.554,-17.01 -1.425,-26.89 0.269,-9.87 -0.336,-20.58 0.66,-31.85 0.933,-11.27 1.355,-23.18 3.363,-35.36 0.844,-6.101 1.699,-12.3 2.566,-18.578 1.223,-6.218 2.461,-12.511 3.707,-18.855 2.145,-12.75 6.071,-25.332 9.09,-38.082 4.051,-12.481 7.297,-25.207 12.071,-37.207 2.246,-6.039 4.472,-12.031 6.675,-17.953 2.496,-5.797 4.957,-11.524 7.383,-17.157 4.805,-11.273 10.375,-21.742 15.485,-31.695 5.597,-9.687 10.601,-19.019 16.226,-26.945 5.152,-8.274 10.684,-15.168 15.535,-21.297 4.699,-6.289 9.801,-10.668 13.453,-14.84 2.93,-2.922 5.637,-4.969 7.715,-6.633 21.227,20.602 42.395,41.149 63.336,61.477 32.723,33.816 64.918,67.097 96.082,99.305 7.774,8.07 15.485,16.074 23.125,24 1.098,1.199 2.16,2.359 3.254,3.554 -1.609,1.481 -3.531,3.274 -5.961,5.602 -2.539,3.359 -5.898,7.308 -9.144,12.094 -2.711,5.027 -6.594,10.367 -9.133,16.808 -1.414,3.16 -2.887,6.453 -4.41,9.863 -1.219,3.493 -2.477,7.106 -3.774,10.817 -2.777,7.362 -4.449,15.442 -6.691,23.622 -1.598,8.33 -3.656,16.85 -4.672,25.66 -1.43,8.75 -2.199,17.71 -2.926,26.66 -0.695,8.94 -0.875,17.91 -1.035,26.72 0.215,8.82 0.051,17.49 0.832,25.85 0.285,4.18 0.57,8.28 0.848,12.31" /><path
         id="path20"
         style="fill:#100f0d;fill-opacity:1;fill-rule:nonzero;stroke:none"
         d="m 437.879,1022.12 c -1.016,-3.75 -2.34,-9.3 -3.578,-16.44 -1.379,-7.098 -2.617,-15.828 -3.574,-25.86 -1.008,-10.027 -1.735,-21.39 -1.86,-33.789 -1.015,-49.59 6.766,-115.836 24.336,-179.465 8.598,-31.843 19.684,-62.972 32.34,-91.046 6.379,-14.004 13.062,-27.293 20.191,-39.395 6.895,-12.254 14.496,-23.105 21.692,-32.906 7.437,-9.61 14.734,-17.985 21.769,-24.742 6.985,-6.813 13.61,-12.059 19.223,-16.039 2.871,-1.883 5.437,-3.567 7.668,-5.028 1.383,-0.812 2.629,-1.453 3.793,-2.043 6.848,6.184 13.683,12.403 20.578,18.68 17.063,15.508 34.332,31.207 51.738,47.031 34.637,31.832 70.758,63.231 104.559,97.024 9.351,9.078 18.676,18.128 28.016,27.195 -2.141,1.84 -4.665,4.031 -7.301,6.859 -3.832,4.641 -9.266,9.782 -13.992,16.594 -4.922,6.695 -10.489,14.223 -15.524,23 -5.555,8.496 -10.367,18.297 -15.758,28.488 -4.875,10.422 -10.179,21.356 -14.66,33.043 -2.258,5.832 -4.555,11.766 -6.879,17.77 -2.019,6.105 -4.062,12.285 -6.121,18.511 -4.39,12.364 -7.223,25.418 -10.847,38.2 -2.598,13.05 -6.083,25.898 -7.782,38.886 -1.023,6.454 -2.035,12.856 -3.039,19.18 -0.64,6.371 -1.277,12.668 -1.902,18.862 -1.563,12.34 -1.555,24.4 -2.07,35.77 -0.583,11.37 0.421,22.15 0.519,32.07 0.238,9.92 1.774,18.97 2.438,26.99 0.605,8.05 2.082,14.92 3.156,20.59 2.101,11.14 3.312,17.56 3.359,17.8 -93.539,-33.68 -176.289,-70.75 -249.066,-110.11 -0.063,-0.25 -0.543,-2.17 -1.422,-5.68" /><path
         id="path22"
         style="fill:#100f0d;fill-opacity:1;fill-rule:nonzero;stroke:none"
         d="m 318.957,335.383 c -1.711,1.008 -3.512,2.066 -5.469,3.219 -6.765,4.14 -15.363,8.531 -24.148,15.328 -4.492,3.226 -9.27,6.66 -14.309,10.281 -5.008,3.656 -10.469,7.23 -15.426,11.941 -5.117,4.496 -10.445,9.176 -15.957,14.024 -2.714,2.465 -5.648,4.785 -8.3,7.484 -2.575,2.785 -5.192,5.61 -7.84,8.473 -5.278,5.738 -10.696,11.633 -16.231,17.66 -4.879,6.57 -9.867,13.281 -14.933,20.109 -5.383,6.602 -9.485,14.235 -13.914,21.758 -4.336,7.578 -9.223,14.977 -12.508,23.281 -3.551,8.153 -7.555,16.192 -10.766,24.571 -2.82,8.523 -5.648,17.078 -8.48,25.633 -2.68,8.585 -4.172,17.496 -6.301,26.183 -2.297,8.672 -3.266,17.535 -4.441,26.285 -2.957,17.442 -3.075,34.848 -4.067,51.571 0.504,16.757 0.078,32.972 1.817,48.238 0.652,7.637 1.289,15.066 1.902,22.254 1,7.136 1.965,14.035 2.891,20.66 1.593,13.273 4.105,25.285 6.121,35.949 1.89,10.695 3.91,19.93 5.804,27.485 3.293,14.019 5.262,22.386 5.543,23.582 -238.652,-250.211 -191.4723,-518.106 9.946,-606.372 22.336,18.09 80.867,65.477 149.066,120.403" /><path
         id="path24"
         style="fill:#100f0d;fill-opacity:1;fill-rule:nonzero;stroke:none"
         d="m 949.023,1204.47 c -1.136,-3.72 -2.23,-8.32 -3.152,-13.64 -0.996,-5.31 -2.387,-11.22 -3.059,-17.84 -0.847,-6.59 -1.902,-13.69 -2.246,-21.3 -0.261,-3.78 -0.527,-7.67 -0.8,-11.65 -0.055,-3.99 -0.11,-8.06 -0.168,-12.2 -0.321,-8.27 0.32,-16.81 0.578,-25.48 0.636,-8.65 1.297,-17.44 2.457,-26.15 1.191,-8.72 2.418,-17.41 4.281,-25.85 1.457,-8.52 3.914,-16.65 5.883,-24.59 2.598,-7.73 4.609,-15.41 7.629,-22.2 1.41,-3.43 2.777,-6.765 4.105,-9.992 1.586,-3.074 3.117,-6.043 4.586,-8.89 2.676,-5.883 6.41,-10.305 9.035,-14.7 3.071,-4 6.075,-7.109 8.332,-9.871 2.289,-1.902 4.055,-3.375 5.434,-4.519 2.824,3.086 5.695,6.214 8.502,9.273 14.57,15.902 28.83,31.461 42.72,46.609 13.88,15.15 27.38,29.89 40.44,44.15 12.8,14.49 25.17,28.49 37.04,41.93 47.61,53.67 86.95,98.71 114.38,130.33 27.49,31.56 43.2,49.59 43.2,49.59 -117.99,-16.55 -226.34,-37.31 -325.993,-61.36 -0.098,-0.37 -1.227,-4.48 -3.184,-11.65" /><path
         id="path26"
         style="fill:#100f0d;fill-opacity:1;fill-rule:nonzero;stroke:none"
         d="m 931.348,307.727 c -6.282,-1.563 -14.16,-1.184 -23.141,-1.676 -9.027,-0.813 -19.109,0.367 -30.148,1.265 -2.762,0.231 -5.582,0.465 -8.454,0.704 -2.828,0.531 -5.71,1.07 -8.644,1.621 -5.871,1.097 -11.941,2.238 -18.184,3.406 -6.191,1.379 -12.398,3.402 -18.836,5.141 -6.414,1.82 -13.035,3.515 -19.445,6.152 -6.496,2.422 -13.098,4.883 -19.781,7.375 -6.606,2.68 -13.067,5.902 -19.711,8.879 -13.457,5.656 -26.008,13.543 -39.113,20.433 -12.34,8.125 -25.321,15.391 -36.813,24.383 -5.84,4.36 -11.808,8.473 -17.39,12.934 -5.477,4.605 -10.883,9.156 -16.204,13.629 -5.453,4.336 -10.293,9.175 -15.097,13.847 -4.782,4.7 -9.602,9.16 -14.039,13.758 -8.274,9.746 -17.004,18.227 -23.453,27.418 -6.629,9.039 -13.172,17.012 -17.586,25.082 -4.563,7.942 -9.336,14.418 -11.774,20.629 -1.097,2.383 -2.074,4.5 -2.984,6.465 -2.301,-2.047 -4.563,-4.211 -6.883,-6.223 -33.609,-29.883 -66.094,-58.769 -96.902,-86.164 -30.942,-27.223 -59.606,-53.793 -87.411,-76.465 -13.265,-11.136 -25.968,-21.8 -38.105,-31.984 1.398,-3.285 3.887,-9.133 7.289,-17.121 2.844,-6.356 5.801,-14.344 10.109,-23.024 4.325,-8.691 9.207,-18.492 14.532,-29.171 5.879,-10.36 12.48,-21.469 19.504,-33.192 3.925,-5.578 7.957,-11.297 12.082,-17.148 2.058,-2.942 4.144,-5.899 6.25,-8.891 2.359,-2.777 4.742,-5.59 7.144,-8.418 4.906,-5.562 9.543,-11.59 14.879,-17.051 5.535,-5.269 11.137,-10.609 16.785,-15.992 12.031,-9.84 24.473,-19.84 38.496,-27.34 3.442,-1.968 6.805,-4.109 10.309,-5.968 l 10.891,-4.79 c 7.238,-3.242 14.421,-6.57 22.042,-8.57 7.559,-2.1014 14.805,-5.2108 22.45,-6.4412 7.578,-1.5274 15.058,-3.0391 22.422,-4.5274 14.961,-1.5 29.406,-3.6602 43.269,-3.543 13.832,-0.7382 26.922,-0.1484 39.016,0.3907 12.117,0.1718 23.113,1.7812 32.926,2.5429 9.816,0.7696 18.32,2.0196 25.32,3.0196 14.012,1.957 22.019,3.0781 22.019,3.0781 0,0 -7.968,-1.3594 -21.918,-3.7305 -6.968,-1.2187 -15.421,-2.7187 -25.234,-3.789 -9.801,-1.0586 -20.809,-3 -32.957,-3.5391 -12.125,-0.9102 -25.266,-1.9023 -39.234,-1.5703 -13.977,-0.5313 -28.649,1.1992 -43.883,2.2695 -7.539,1.2891 -15.199,2.6016 -22.961,3.9297 -7.832,1.0312 -15.34,3.9609 -23.152,5.8906 -7.879,1.8282 -15.364,5.0074 -22.915,8.1294 l -11.382,4.609 c -3.668,1.812 -7.207,3.902 -10.825,5.832 -14.738,7.34 -27.929,17.269 -40.707,27.121 -6.015,5.387 -11.98,10.738 -17.878,16.027 -5.692,5.481 -10.657,11.52 -15.903,17.141 -2.57,2.852 -5.121,5.68 -7.648,8.488 -2.258,3.012 -4.496,5.992 -6.707,8.934 -4.43,5.906 -8.762,11.68 -12.981,17.308 -7.566,11.782 -14.687,22.981 -21.035,33.442 -5.773,10.758 -11.066,20.617 -15.758,29.359 -4.676,8.758 -7.918,16.75 -11.019,23.157 -2.426,5.253 -4.403,9.535 -5.926,12.832 C 267.727,256.621 214.324,211.879 191.629,192.871 294.469,-79.1094 665.012,-88.1289 951.07,311.148 c -0.922,-0.16 -7.925,-1.375 -19.722,-3.421" /><path
         id="path28"
         style="fill:#100f0d;fill-opacity:1;fill-rule:nonzero;stroke:none"
         d="m 155.059,797.629 c -1.692,-7.606 -3.454,-16.895 -5.047,-27.609 -1.715,-10.7 -3.891,-22.719 -5.117,-35.997 -0.743,-6.621 -1.516,-13.511 -2.313,-20.644 -0.418,-7.164 -0.844,-14.57 -1.285,-22.18 -1.317,-15.207 -0.442,-31.293 -0.492,-47.879 1.441,-16.523 2.015,-33.695 5.41,-50.773 1.39,-8.578 2.57,-17.262 5.066,-25.699 2.324,-8.461 4.012,-17.141 6.864,-25.461 2.992,-8.266 5.976,-16.535 8.953,-24.774 3.351,-8.07 7.476,-15.781 11.125,-23.597 3.386,-7.969 8.355,-15.016 12.746,-22.239 4.492,-7.164 8.629,-14.433 14.035,-20.679 5.07,-6.457 10.055,-12.809 14.937,-19.028 5.512,-5.672 10.907,-11.222 16.161,-16.625 2.625,-2.691 5.214,-5.347 7.769,-7.968 2.625,-2.536 5.543,-4.7 8.231,-7.012 5.453,-4.535 10.718,-8.914 15.777,-13.121 4.875,-4.418 10.293,-7.739 15.238,-11.141 4.969,-3.367 9.68,-6.566 14.11,-9.57 8.628,-6.336 17.144,-10.375 23.804,-14.207 4.106,-2.274 7.602,-4.207 10.578,-5.856 9.993,8.047 20.243,16.305 30.957,24.93 28.332,22.164 57.258,47.93 88.637,74.422 31.231,26.656 64.164,54.762 98.231,83.84 6.195,5.144 12.285,10.562 18.386,15.953 -2.394,1.672 -5.105,3.558 -8.164,5.691 -6.117,4.602 -13.207,10.586 -20.508,18.141 -7.363,7.5 -14.836,16.613 -22.343,26.93 -7.243,10.48 -14.801,22.011 -21.535,34.835 -6.985,12.7 -13.426,26.512 -19.52,40.997 -12.07,29.019 -22.363,60.898 -30.105,93.336 -15.86,64.808 -21.7,131.66 -19.215,181.46 0.492,12.454 1.558,23.844 2.867,33.875 1.258,10.043 2.754,18.75 4.348,25.84 1.453,7.13 2.937,12.62 4.066,16.35 0.98,3.47 1.512,5.37 1.586,5.63 C 320.512,963.555 228.473,893.195 159.953,821.363 c -0.238,-1.152 -1.976,-9.582 -4.894,-23.734" /></g></g></svg>