<?xml version="1.0" encoding="utf-8"?>
<!-- Generator: Adobe Illustrator 21.0.2, SVG Export Plug-In . SVG Version: 6.00 Build 0)  -->
<svg version="1.1" id="Layer_1" xmlns="http://www.w3.org/2000/svg" xmlns:xlink="http://www.w3.org/1999/xlink" x="0px" y="0px"
	 viewBox="0 0 200.1 200.1" style="enable-background:new 0 0 200.1 200.1;" xml:space="preserve">
<style type="text/css">
	.st0{fill:#9CBE30;}
</style>
<path class="st0" d="M134.1,51.2c-15.7-17-31.4-14.3-34.1-13.9c1.3,0.4,2.7,30,19.3,45.7c11.2,10.3,34.1,6.7,34.1,6.7
	S149.3,67.8,134.1,51.2 M152.9,109.1c-4.9,0-25.1,1.8-38.6,18.4c-13.9,17.5-13.5,31.4-16.6,34.5c2.7,0.9,30.9,3.6,43-14.8
	C152.5,130.2,152.9,111.8,152.9,109.1 M30,97c3.1,0.4,13.9,14.4,33.2,16.1c21.1,2.2,28.2-8.5,28.7-8.5c0-1.3-17-19.7-35.9-19.7
	C43,85.3,30,97,30,97 M106.7,106.4c-0.4,0.4-17.9,23.8-59.2,17.5C14.3,118.5,2.2,100.1,0,99.7c2.7-3.6,27.8-23.8,56.9-23.3
	c28.7,0.9,49.8,17,49.8,17h18.4c-14.8-4.5-32.7-12.6-40.8-30.5c-7.2-16.6-5.8-26.5-9-40.4c0,0,33.2-2.7,58.7,13.9
	c23.3,15.2,36.3,55.6,36.8,56.9h14.3l-3.1-71.7l17.9,0.4c-3.1,18.8,0.9,153.4,0,153.4c-1.8,0.4-17,1.3-18.4-2.2c0,0,3.6-65.9,4-67.3
	h-13.9c0,0.9-1.3,38.1-29.6,57.8c-28.3,19.7-69.1,13.9-69.1,13.9c4.9-7.6,0-15.7,14.3-37.7c16.6-25.1,38.6-34.1,38.1-34.1
	C124.2,106.4,107.2,106.4,106.7,106.4"/>
</svg>
