<?xml version="1.0" encoding="utf-8"?>
<!-- Generator: Adobe Illustrator 19.0.0, SVG Export Plug-In . SVG Version: 6.00 Build 0)  -->
<svg version="1.1" id="Layer_1" xmlns="http://www.w3.org/2000/svg" xmlns:xlink="http://www.w3.org/1999/xlink" x="0px" y="0px"
	 viewBox="0 0 24.5 33.5" style="enable-background:new 0 0 24.5 33.5;" xml:space="preserve">
<style type="text/css">
	.st0{fill:#BAB7B1;}
	.st1{fill:#9C947A;}
	.st2{fill:#85B841;}
</style>
<path class="st0" d="M16.9,13.8h7.6V6.2h-7.6V13.8z M22.7,12h-4V8h4V12z"/>
<path id="XMLID_34_" class="st1" d="M11.6,27.2c1.7-1.1,2.9-2.7,3.5-4.9h-0.9c-0.6,1.6-1.7,2.6-3.2,3.1c-0.4-1.3-0.6-2.7-0.6-4.1
	c0-2.7,0.7-5.3,2-7.5h3.2V7.6H9.4v6.2h1.1c-1.2,1.9-2.1,4.1-2.4,6.5c-1.1-0.7-1.9-1.5-2.4-2.9h-1c0.6,2.1,1.7,3.6,3.2,4.8
	c0,0.2,0,0.3,0,0.5c0,4.2,1.6,8,4.1,10.9h4.5C14.4,31.9,12.7,29.8,11.6,27.2z M10.7,8.9h3.6v3.6h-3.6V8.9z"/>
<path class="st0" d="M12.5,23.2h8v-8h-8V23.2z M18.7,21.4h-4.5v-4.5h4.5V21.4z"/>
<path class="st0" d="M3.1,8.9H8V4H3.1V8.9z M6.7,7.6H4.5V5.4h2.2V7.6z"/>
<path class="st2" d="M9.4,6.2h6.2V0H9.4V6.2z M14.3,4.9h-3.6V1.3h3.6V4.9z"/>
<path class="st2" d="M0,18.3h8v-8H0V18.3z M6.2,16.5H1.8V12h4.5V16.5z"/>
</svg>
