<?xml version="1.0" encoding="utf-8"?>
<!-- Generator: Adobe Illustrator 21.0.2, SVG Export Plug-In . SVG Version: 6.00 Build 0)  -->
<svg version="1.1" id="Layer_1" xmlns="http://www.w3.org/2000/svg" xmlns:xlink="http://www.w3.org/1999/xlink" x="0px" y="0px"
	 viewBox="0 0 1000 1000" style="enable-background:new 0 0 1000 1000;" xml:space="preserve">
<path d="M947,346.8c-29.5,0.1-53.1,23.9-53.1,53.3c-0.6,25.3,20.5,52.2,53.1,52.6c29.4,0.2,53.4-23.7,53.4-53S976.4,346.7,947,346.8
	z"/>
<polygon points="901.1,660.1 993,660.1 993.3,558.2 993.4,467 901.1,467.4 "/>
<path d="M868.3,409.9c-8.4-23.2-22.9-40.1-45.6-49.8c-18.9-8.1-38.8-10.5-59.1-9.2c-33.8,2.1-61.9,15.4-80.2,45.3
	c-0.4,0.6-0.9,1.3-2.1,0.7l0.1-39.2l-88.3,0.1l-0.1,84.8c-1.8-2.3-2.7-4.9-3.7-7.3c-15.9-41-44.3-68.8-87.1-80.5
	c-27.8-7.7-56.1-9-83.9-2.3C358.3,367,317,403.9,300.7,465l-1.6,6.3l-122.7-0.1v62l49.9-0.1l-0.1,6.2c-0.4,10.6-0.5,21.1,0,31.7
	c0.2,4-1.7,5.9-4.6,7.7c-17.1,10.6-35.9,13.8-55.5,12.2c-38.8-3.1-64.3-31-71.4-68.2c-2.4-13.1-2.2-26.1-1.3-39.3
	c0.4-1.8,1-3.5,1.2-5.2c3.4-18.9,11-35.4,25-48.9c13.2-12.7,28.9-21.4,47.1-22.3c30.4-1.6,58.4,5.6,81.4,27.5c2,1.8,3.1,1.7,4.8-0.2
	c15-17.6,30-35,45.1-52.3c2.1-2.6,1.3-3.8-0.9-5.6c-10.7-8.7-22.3-16-35.3-20.9c-49.7-18.7-100.2-21.1-151.1-6.3
	c-37.3,10.7-67.5,32.3-88.1,65.9c-12.8,21-20.3,43.8-21.4,68.5C-1,498.8,0,514.2,2.6,529.6c5.2,32,18.9,59.8,42.1,82.5
	c19,18.7,42,31,67.6,38.7c29.6,8.9,59.9,9.8,90.5,7.2c34.8-2.9,68.2-11,99.9-25.9c1.8-0.9,4.1-2.3,4.1-2.3l0.1-57.5
	c0-1.8,0.1-3.7,0.2-7c1.6,3.2,2.6,5,3.4,7c11.3,23.5,27.8,42.7,49.5,57.5c34.2,23.2,72.2,31.8,112.6,29.2c27.6-1.8,53.8-9.6,77-25.7
	c12.2-8.4,24.2-17,33.9-28.3l3.4-3.7c-19.2-13.7-45.8-33.4-64.7-47.3l-2.9,4c-3.7,5.1-8.1,9.4-12.7,13.5
	c-35.9,32.3-101,23.5-117.3-31.1l-2-7.1c63.9,0,141.2,0.1,205.2-0.1l-0.1,127c26.6-0.2,65.5-0.2,92.2,0l-0.2-151.4
	c0-10.9,0.4-21.6,2.1-32.2c0.6-2.4,1.1-5,1.8-7.4c2.8-9.8,6.6-19,14.6-26.1c12-10.5,26.2-12.2,40.9-11.5c19,1,32.1,10.9,38.2,29.2
	c4.5,12.3,5.1,35,5.1,39.2c0,49.4,0,111.2-0.1,160.6h91.6l0.4-173.4C879.3,460.7,877.5,435,868.3,409.9z M448.1,471.4
	c-18.2,0-43.1,0-61.3,0.1l1.3-6.6c10.9-56.9,84.9-57,108.6-28.7c7.7,9.2,10.6,20,12,31.6l0.2,3.5
	C490.6,471.4,466.6,471.4,448.1,471.4z"/>
</svg>
