<?xml version="1.0" encoding="utf-8"?>
<!-- Generator: Adobe Illustrator 21.0.2, SVG Export Plug-In . SVG Version: 6.00 Build 0)  -->
<svg version="1.1"
	 id="Layer_1" xmlns:cc="http://creativecommons.org/ns#" xmlns:dc="http://purl.org/dc/elements/1.1/" xmlns:inkscape="http://www.inkscape.org/namespaces/inkscape" xmlns:rdf="http://www.w3.org/1999/02/22-rdf-syntax-ns#" xmlns:sodipodi="http://sodipodi.sourceforge.net/DTD/sodipodi-0.dtd" xmlns:svg="http://www.w3.org/2000/svg"
	 xmlns="http://www.w3.org/2000/svg" xmlns:xlink="http://www.w3.org/1999/xlink" x="0px" y="0px" viewBox="0 0 512 512"
	 style="enable-background:new 0 0 512 512;" xml:space="preserve">
<path id="path24_3_" d="M344.4,253.7c-2.9-56.6-44.9-90.6-95.7-90.6h-1.9c-58.6,0-91,46.1-91,98.4c0,58.6,39.3,95.6,90.8,95.6
	c57.4,0,95.2-42.1,97.9-91.8L344.4,253.7L344.4,253.7z M247.1,112.4c39.1,0,75.9,17.3,102.9,44.4v0.1c0-13,8.8-22.8,20.9-22.8l3.1,0
	c19,0,22.9,18,22.9,23.7l0.1,202.1c-1.3,13.2,13.7,20.1,22,11.6c32.5-33.4,71.3-171.5-20.2-251.5c-85.2-74.6-199.6-62.3-260.5-20.4
	c-64.7,44.6-106,143.3-65.9,236c43.8,101.1,169.2,131.3,243.7,101.2c37.7-15.2,55.2,35.8,16,52.4c-59.2,25.2-224,22.7-301-110.7
	c-52-90-49.3-248.5,88.7-330.6C225.4-14.9,364.6,2.5,448.5,90.1c87.7,91.6,82.6,263.2-3,329.8c-38.8,30.3-96.3,0.8-96-43.3
	l-0.4-14.4c-27,26.8-62.9,42.4-102,42.4c-77.3,0-145.3-68-145.3-145.3C101.8,181.2,169.8,112.4,247.1,112.4L247.1,112.4"/>
</svg>
