<?xml version="1.0" encoding="UTF-8" standalone="no"?>
<svg width="295px" height="227px" viewBox="0 0 295 227" version="1.1" xmlns="http://www.w3.org/2000/svg" xmlns:xlink="http://www.w3.org/1999/xlink" xmlns:sketch="http://www.bohemiancoding.com/sketch/ns">
    <!-- Generator: Sketch 3.2.2 (9983) - http://www.bohemiancoding.com/sketch -->
    <title>MyHeritageIcon</title>
    <desc>Created with Sketch.</desc>
    <defs></defs>
    <g id="Page-1" stroke="none" stroke-width="1" fill="none" fill-rule="evenodd" sketch:type="MSPage">
        <g id="MyHeritageIcon" sketch:type="MSLayerGroup" transform="translate(0.000000, 1.000000)">
            <circle id="Oval-1" stroke="#FFFFFF" stroke-width="10" fill="#DA6835" sketch:type="MSShapeGroup" cx="147.5" cy="112.5" r="108.5"></circle>
            <path d="M130.982627,129.241754 C136.431566,128.547615 140.840296,127.458316 140.840296,127.458316 C140.840296,127.458316 143.037775,138.775566 146.94006,140.172729 C153.978301,135.934369 162.335962,121.191736 162.335962,121.191736 L164.359518,126.996519 C164.359518,126.996519 156.206212,141.173179 153.702201,151.931341 C151.425866,161.73459 152.811925,187.65587 153.151775,199.425585 C155.187325,212.209299 156.057643,210.664355 162.736493,218.058389 C153.917578,224.746727 132.514681,219.707568 129.534596,217.337048 C136.319658,210.477006 138.889375,209.04358 139.327627,199.641045 C140.840296,179.92193 142.643503,179.18781 138.889375,151.931341 C138.301411,148.473972 136.732545,135.235566 130.982627,129.241754 Z" id="Path-20" fill="#FFFFFF" sketch:type="MSShapeGroup"></path>
            <path d="M137.187192,142.48393 C137.563436,143.819327 138.727429,151.406736 138.701923,151.911578 C136.090325,152.122801 129.784072,151.99083 129.784072,151.99083 C129.784072,151.99083 125.879508,156.133132 123.243781,156.469369 C120.608053,156.805606 117.748175,153.526238 117.748175,153.526238 C117.748175,153.526238 114.854133,156.469372 106.537219,155.850963 C95.7101743,154.459202 92.6773251,146.431182 92.6773251,146.431182 C92.6773251,146.431182 83.3097544,143.313786 82.2400769,135.340706 C81.2283819,130.797716 88.013465,125.488241 88.013465,125.488241 C88.013465,125.488241 80.9453741,122.548714 80.4965329,116.593205 C80.0476918,110.637696 86.3863974,103.899276 86.3863974,103.899276 C86.3863974,103.899276 84.2731171,103.29609 83.9023676,98.7410918 C83.9023676,86.3234794 95.2510138,77.5631964 95.2510138,77.5631964 C95.2510138,77.5631964 96.3623653,66.1662642 107.306524,61.9869764 C107.831574,57.3857657 108.905306,52.2227227 118.280924,51.4508634 C119.260243,48.2962973 120.409211,43.3735637 130.996868,46.1561894 C133.117596,43.3735637 134.131432,41.6219947 140.782088,43.3735636 C143.11718,41.1610934 153.027287,36.7492971 159.806971,47.096006 C167.702717,46.1561893 182.325192,51.4508637 181.269052,66.9602395 C192.281682,70.2102889 206.845723,80.6455745 204.419042,99.7985856 C208.807293,103.899275 215.906415,114.556806 200.191468,125.8829 C201.071339,128.644056 208.397053,136.020428 194.178745,149.719868 C191.457584,152.291028 176.888705,166.054086 174.684239,147.532278 C166.530504,158.846101 154.809818,153.101979 153.936719,152.291027 C152.478252,146.15981 164.39318,126.968412 164.39318,126.968412 L162.266184,121.062938 C162.266184,121.062938 151.535666,138.896577 147.502898,140.094625 C143.470129,141.292672 140.840927,127.427914 140.840927,127.427914 L130.940431,129.102613 C130.940431,129.102613 135.395337,136.124134 137.187192,142.48393 Z" id="Path-19" fill="#FFFFFF" sketch:type="MSShapeGroup"></path>
            <path d="M294.516245,225.421291 C152.520312,191.849056 173.507808,20.5948029 290.820809,0.368228983 C156.819503,9.58660705 160.923499,112.74725 160.923499,112.74725 C160.923499,112.74725 154.243252,217.266888 294.516245,225.421291 Z" id="Path-22" fill="#DA6835" sketch:type="MSShapeGroup" transform="translate(227.694611, 112.894760) scale(-1, 1) translate(-227.694611, -112.894760) "></path>
            <path d="M133.464613,225.199569 C-8.53132002,191.627334 14.5221379,18.3804575 130.996025,0.192320458 C-3.00528078,9.41069853 0.408060523,112.92018 0.408060523,112.92018 C0.408060523,112.92018 -6.80837971,217.045165 133.464613,225.199569 Z" id="Path-23" fill="#DA6835" sketch:type="MSShapeGroup"></path>
        </g>
    </g>
</svg>