<?xml version="1.0" encoding="utf-8"?>
<!-- Generator: Adobe Illustrator 21.0.2, SVG Export Plug-In . SVG Version: 6.00 Build 0)  -->
<svg version="1.1" id="Layer_1" xmlns="http://www.w3.org/2000/svg" xmlns:xlink="http://www.w3.org/1999/xlink" x="0px" y="0px"
	 viewBox="0 0 512 512" style="enable-background:new 0 0 512 512;" xml:space="preserve">
<path d="M390.4,0h-43.3c-3.8,0-6.2,1.9-6.8,4.6c-0.5,2.7-65,199.2-69.7,215.6c-3.3,11.6-14.1,52.5-16.7,62.3l-22.4-61.2
	c-5.4-16.8-57.6-162.6-59.2-168.5c-0.8-3.2-2.3-7.2-7.9-7.2h-42.3c-4.1,0-6.5,4.5-5.1,7.4c1.1,2.3,77.5,205.6,108.4,283.2V507
	c0,3.1,1.2,5,4.4,5h40.1c2.5,0,4.4-1.9,4.4-5V345.1v-7.5C299.8,265.7,393.8,10,394.8,7.2C396.1,3.7,395.7,0,390.4,0z"/>
</svg>
