<?xml version="1.0" encoding="utf-8"?>
<!-- Svg Vector Icons : http://www.onlinewebfonts.com/icon -->
<!DOCTYPE svg PUBLIC "-//W3C//DTD SVG 1.1//EN" "http://www.w3.org/Graphics/SVG/1.1/DTD/svg11.dtd">
<svg version="1.1" xmlns="http://www.w3.org/2000/svg" xmlns:xlink="http://www.w3.org/1999/xlink" x="0px" y="0px" viewBox="0 0 1000 1000" enable-background="new 0 0 1000 1000" xml:space="preserve">
<metadata> Svg Vector Icons : http://www.onlinewebfonts.com/icon </metadata>
<g><g id="e6c6b53d3c8160b22dad35a0f710519b"><path d="M719.5,10H571c-145.9,0-269.6,111.1-269.6,326.7c0,129.4,59.9,224.7,166.7,271.8L268.8,969.1c-6.5,11.8,0,20.9,10.4,20.9h92.5c7.8,0,13-2.6,15.6-9.1l181.1-354.1h65.1v354.1c0,3.9,3.9,9.1,9.1,9.1h80.8c7.8,0,10.4-3.9,10.4-10.4V23.1C733.8,13.9,728.6,10,719.5,10z M633.5,543.1h-54.7c-86,0-169.3-62.7-169.3-219.5c0-163.4,78.1-230,157.6-230h66.4V543.1z"/></g></g>
</svg>