<?xml version="1.0" standalone="no"?>
<!DOCTYPE svg PUBLIC "-//W3C//DTD SVG 20010904//EN"
 "http://www.w3.org/TR/2001/REC-SVG-20010904/DTD/svg10.dtd">
<svg version="1.0" xmlns="http://www.w3.org/2000/svg"
 width="700.000000pt" height="700.000000pt" viewBox="0 0 700.000000 700.000000"
 preserveAspectRatio="xMidYMid meet">
<metadata>
Created by potrace 1.11, written by Peter Selinger 2001-2013
</metadata>
<g transform="translate(0.000000,700.000000) scale(0.100000,-0.100000)"
fill="#000000" stroke="none">
<path d="M6840 6965 c-41 -7 -95 -16 -120 -19 -25 -3 -54 -8 -65 -10 -11 -2
-56 -9 -100 -16 -44 -7 -89 -14 -100 -16 -11 -2 -60 -11 -110 -19 -49 -9 -124
-22 -165 -30 -41 -8 -87 -17 -102 -19 -15 -3 -63 -12 -105 -20 -43 -9 -89 -18
-103 -21 -171 -33 -533 -113 -705 -156 -66 -17 -127 -32 -135 -34 -80 -18
-259 -66 -400 -107 -58 -16 -112 -31 -120 -33 -54 -10 -638 -202 -765 -250
-33 -13 -116 -44 -185 -70 -385 -144 -889 -375 -1215 -558 -49 -27 -110 -61
-135 -75 -266 -146 -685 -437 -941 -653 -190 -160 -397 -362 -391 -381 1 -5
-2 -7 -7 -4 -11 7 -112 -104 -239 -263 -282 -352 -480 -735 -571 -1101 -51
-204 -59 -282 -56 -515 3 -217 4 -227 35 -360 81 -349 263 -632 556 -866 69
-55 304 -189 331 -189 5 0 27 15 49 33 21 18 131 107 244 198 389 312 511 412
516 420 2 5 -13 17 -34 28 -37 19 -229 153 -287 201 -16 14 -80 75 -141 135
-178 176 -279 328 -394 590 -36 82 -105 349 -115 440 -28 285 -24 556 10 760
3 16 8 52 11 80 4 27 12 75 20 105 11 41 13 45 9 15 -3 -22 -10 -74 -15 -115
-6 -41 -12 -91 -15 -110 -3 -19 -8 -125 -11 -236 -6 -176 3 -361 22 -458 2
-11 6 -38 9 -61 10 -67 44 -194 80 -296 140 -404 435 -741 854 -978 l74 -41
167 134 c135 110 505 421 645 545 17 14 57 48 90 76 33 27 62 52 65 55 3 3 61
53 130 111 174 148 195 167 190 172 -3 2 -23 17 -45 33 -22 16 -66 56 -98 88
-228 232 -398 591 -531 1121 -2 6 -7 33 -11 60 -11 63 -10 57 -17 80 -7 21 -9
34 -28 172 -6 46 -13 97 -15 115 -24 168 -28 697 -6 683 4 -2 4 -34 1 -72 -10
-113 3 -392 25 -553 18 -124 47 -288 59 -328 3 -9 7 -28 10 -42 11 -59 38
-163 71 -270 115 -373 291 -705 470 -884 70 -71 166 -146 184 -146 3 0 24 17
47 38 22 20 60 55 85 77 51 46 230 208 270 245 50 46 114 105 169 154 126 113
292 269 416 391 l133 130 -55 60 c-110 121 -196 268 -314 540 -45 103 -134
410 -154 530 -3 17 -12 71 -20 120 -23 138 -30 236 -30 405 0 129 10 319 18
327 1 1 1 -96 1 -215 0 -187 9 -364 20 -382 1 -3 6 -27 9 -55 4 -27 11 -66 16
-85 5 -19 11 -46 14 -60 60 -321 249 -764 416 -975 43 -54 130 -145 140 -145
14 0 318 299 602 592 374 387 416 433 407 438 -20 13 -92 119 -120 178 -37 79
-75 193 -89 269 -5 32 -12 69 -15 83 -21 99 -28 488 -12 600 12 78 46 242 52
248 7 8 6 -7 -5 -53 -30 -128 -36 -544 -9 -650 4 -16 10 -48 14 -70 27 -184
102 -375 190 -487 25 -32 49 -58 53 -58 9 0 67 60 207 215 55 61 125 137 156
170 31 33 76 82 100 110 24 27 49 54 55 60 5 5 44 48 85 95 40 47 76 87 79 90
3 3 32 36 65 74 33 38 71 81 84 95 13 14 49 55 80 91 159 183 275 316 280 320
6 5 121 140 128 149 2 2 5 2 7 0 3 -2 -10 -20 -27 -40 -18 -20 -108 -127 -202
-239 -93 -112 -174 -208 -180 -214 -5 -6 -32 -38 -60 -71 -67 -80 -80 -96
-105 -125 -12 -14 -65 -76 -118 -139 -54 -63 -117 -138 -142 -166 -25 -28 -72
-82 -105 -119 -33 -38 -71 -81 -85 -96 -14 -15 -36 -40 -49 -56 -14 -16 -71
-82 -129 -147 l-104 -117 21 -33 c25 -41 123 -134 176 -168 181 -114 378 -165
640 -163 72 0 153 4 180 8 28 5 48 6 45 3 -12 -12 -206 -38 -296 -39 -136 -2
-231 9 -349 39 -176 45 -337 133 -434 238 l-44 48 -25 -29 c-13 -16 -54 -61
-91 -99 -80 -85 -283 -304 -366 -394 -67 -73 -256 -269 -412 -427 -57 -57
-103 -106 -103 -110 0 -14 91 -133 154 -201 277 -297 697 -511 1081 -549 33
-3 69 -8 80 -9 11 -2 60 -4 109 -4 49 -1 87 -3 84 -6 -12 -13 -293 -4 -378 11
-19 3 -48 8 -65 11 -277 42 -608 195 -850 393 -80 66 -225 216 -252 260 -9 17
-20 30 -24 30 -4 0 -92 -84 -195 -187 -104 -104 -232 -228 -285 -278 -52 -49
-165 -156 -250 -236 -85 -81 -183 -174 -219 -207 -153 -143 -180 -170 -180
-181 0 -18 65 -144 114 -219 83 -130 257 -327 381 -432 269 -227 538 -382 835
-478 120 -39 253 -70 313 -71 15 -1 27 -5 27 -11 0 -5 -6 -7 -12 -5 -7 2 -38
6 -68 9 -116 11 -297 58 -452 117 -495 191 -987 602 -1183 988 -15 30 -30 50
-33 45 -4 -5 -65 -61 -137 -124 -71 -63 -132 -117 -135 -120 -3 -3 -63 -57
-135 -120 -71 -63 -132 -117 -135 -120 -3 -3 -45 -41 -95 -85 -49 -44 -92 -82
-95 -85 -11 -12 -235 -203 -360 -309 -74 -63 -139 -118 -144 -122 -10 -9 19
-83 100 -254 268 -567 624 -888 1089 -981 11 -2 31 -6 45 -9 54 -12 72 -14
162 -21 125 -9 268 -11 351 -4 37 3 67 2 67 -2 0 -5 -17 -9 -37 -9 -21 -1 -49
-3 -63 -5 -74 -10 -389 -3 -475 10 -544 85 -928 411 -1241 1054 -70 143 -76
153 -94 140 -20 -14 -427 -355 -447 -374 -7 -7 -74 -63 -148 -125 -113 -94
-134 -116 -129 -133 12 -42 113 -244 150 -302 244 -384 580 -617 1018 -707
104 -21 147 -25 330 -25 131 0 243 4 296 13 99 15 241 45 253 52 4 2 18 6 32
9 69 12 278 92 435 166 424 199 900 577 1281 1018 41 47 76 87 79 90 12 11
152 192 217 280 140 190 361 530 459 707 160 290 330 634 410 833 19 47 42 99
51 115 10 17 16 31 15 32 -1 2 8 24 19 50 91 211 289 773 368 1048 82 286 144
514 166 615 2 8 15 62 29 120 26 102 70 301 80 356 3 15 10 50 16 78 12 57 11
56 39 187 11 53 32 166 46 250 14 85 27 165 30 179 6 29 9 43 29 165 8 50 17
115 21 145 3 30 8 66 10 80 2 14 7 45 10 70 3 25 8 56 10 70 2 14 7 49 10 79
4 30 9 63 11 75 2 11 6 37 9 58 l6 38 -38 -1 c-21 -1 -72 -7 -113 -14z m20
-139 c0 -2 -8 -10 -17 -17 -16 -13 -17 -12 -4 4 13 16 21 21 21 13z m-75 -84
l-39 -37 35 41 c19 22 36 39 39 37 2 -2 -13 -20 -35 -41z m-4428 -1384 c-3 -7
-5 -2 -5 12 0 14 2 19 5 13 2 -7 2 -19 0 -25z m-1530 -1120 c-3 -7 -5 -2 -5
12 0 14 2 19 5 13 2 -7 2 -19 0 -25z m4150 -2562 c2 -2 -21 -4 -51 -4 -31 1
-56 4 -56 8 0 7 99 4 107 -4z m-1160 -1182 c-3 -3 -12 -4 -19 -1 -8 3 -5 6 6
6 11 1 17 -2 13 -5z m-37 -8 c0 -2 -18 -6 -39 -8 -22 -2 -37 0 -35 4 5 8 74
11 74 4z"/>
</g>
</svg>
